<?xml version="1.0" encoding="UTF-8" standalone="no"?>
<svg
   version="1.0"
   width="551pt"
   height="558pt"
   viewBox="0 0 551 558"
   preserveAspectRatio="xMidYMid"
   id="svg3"
   sodipodi:docname="svgviewer-output.svg"
   xmlns:inkscape="http://www.inkscape.org/namespaces/inkscape"
   xmlns:sodipodi="http://sodipodi.sourceforge.net/DTD/sodipodi-0.dtd"
   xmlns:xlink="http://www.w3.org/1999/xlink"
   xmlns="http://www.w3.org/2000/svg"
   xmlns:svg="http://www.w3.org/2000/svg">
  <defs
     id="defs3">
    <linearGradient
       id="swatch11"
       inkscape:swatch="solid">
      <stop
         style="stop-color:#4caf50;stop-opacity:1;"
         offset="0"
         id="stop11" />
    </linearGradient>
    <linearGradient
       id="swatch10"
       inkscape:swatch="solid">
      <stop
         style="stop-color:#000000;stop-opacity:1;"
         offset="0"
         id="stop10" />
    </linearGradient>
    <linearGradient
       inkscape:collect="always"
       xlink:href="#swatch11"
       id="linearGradient11"
       x1="51.548832"
       y1="2806.4453"
       x2="5428.4512"
       y2="2806.4453"
       gradientUnits="userSpaceOnUse" />
    <linearGradient
       inkscape:collect="always"
       xlink:href="#swatch11"
       id="linearGradient2"
       gradientUnits="userSpaceOnUse"
       x1="51.548832"
       y1="2806.4453"
       x2="5428.4512"
       y2="2806.4453" />
    <linearGradient
       inkscape:collect="always"
       xlink:href="#swatch11"
       id="linearGradient3"
       gradientUnits="userSpaceOnUse"
       x1="51.548832"
       y1="2806.4453"
       x2="5428.4512"
       y2="2806.4453" />
    <linearGradient
       inkscape:collect="always"
       xlink:href="#swatch11"
       id="linearGradient4"
       gradientUnits="userSpaceOnUse"
       x1="51.548832"
       y1="2806.4453"
       x2="5428.4512"
       y2="2806.4453" />
    <linearGradient
       inkscape:collect="always"
       xlink:href="#swatch11"
       id="linearGradient5"
       gradientUnits="userSpaceOnUse"
       x1="51.548832"
       y1="2806.4453"
       x2="5428.4512"
       y2="2806.4453" />
  </defs>
  <sodipodi:namedview
     id="namedview3"
     pagecolor="#ffffff"
     bordercolor="#000000"
     borderopacity="0.25"
     inkscape:showpageshadow="2"
     inkscape:pageopacity="0.0"
     inkscape:pagecheckerboard="0"
     inkscape:deskcolor="#d1d1d1"
     inkscape:document-units="pt" />
  <g
     transform="matrix(0.1,0,0,-0.1,0,558)"
     fill="#000000"
     stroke="none"
     id="g3"
     style="fill:url(#linearGradient11);fill-opacity:1;fill-rule:nonzero"
     inkscape:highlight-color="#7bd9a5">
    <g
       id="g25"
       transform="matrix(9.9999998,0,0,-9.9999998,0,5580)"
       style="fill:url(#linearGradient2)">
      <path
         style="fill:#c8e6c9;fill-opacity:1;fill-rule:nonzero;stroke:#000000;stroke-width:0.75;stroke-opacity:0"
         d="m 365.53668,121.36679 30.16216,14.36294 19.5695,-43.98649 -20.28764,-15.978758 -17.41506,12.208493 -12.20849,29.623555 z"
         id="path25" />
      <path
         style="fill:#c8e6c9;fill-opacity:1;fill-rule:nonzero;stroke:#000000;stroke-width:0.75;stroke-opacity:0"
         d="m 134.29344,89.947875 c -0.44422,1.922993 -0.0581,3.688335 0.35907,5.565637 0.0662,0.297885 0.0662,0.614356 0.17953,0.897683 1.34934,3.373328 -0.18659,-1.457468 0.89769,1.795373 0.53275,1.598265 1.01102,3.274992 1.61583,4.847492 0.14412,0.37469 0.42054,0.69351 0.53861,1.07722 0.34968,1.13646 0.3396,2.45508 0.71815,3.59073 0.80697,2.42092 1.46719,3.00913 2.51351,5.02703 1.49602,2.88518 2.78581,5.84153 4.12934,8.7973 0.0937,0.50214 0.50237,0.8252 0.71815,1.25675 0.99871,1.99744 -0.2337,-0.0975 0.71815,1.61583 0.16947,0.30505 0.43599,0.56416 0.53861,0.89768 0.30873,1.00338 0.18525,2.43947 0.5386,3.4112 0.0737,0.20279 0.40048,0.19331 0.53862,0.35907 0.51021,0.61226 0.80424,1.50799 1.25676,2.15445 1.50663,2.15233 -0.0584,-0.41747 1.43628,1.07721 0.13383,0.13382 0.0822,0.37634 0.17955,0.53862 0.21468,0.35781 1.94305,1.7249 2.15443,1.79536 0.55376,0.18459 1.22432,0.10816 1.79537,0.17954 0.18779,0.0235 0.35304,0.14242 0.53861,0.17953 1.19671,0.23935 2.83894,-0.17331 3.77027,-0.89768 0.33403,-0.2598 0.56724,-0.63333 0.89768,-0.89768 0.57043,-0.45635 1.22096,-0.80544 1.79537,-1.25676 0.2662,-0.20916 0.42785,-0.54397 0.71815,-0.71814 0.32456,-0.19474 0.73868,-0.18981 1.07721,-0.35908 1.04841,-0.5242 1.19813,-0.93275 2.15445,-1.61583 0.64389,-0.45992 2.09964,-1.20197 2.69305,-1.79537 0.0423,-0.0423 0,-0.11969 0,-0.17953 0.11969,-0.11969 0.22689,-0.25334 0.35907,-0.35908 1.04031,-0.83224 2.10283,-1.80799 3.23166,-2.51351 0.45392,-0.2837 0.98238,-0.43445 1.4363,-0.71815 0.25374,-0.15859 0.45051,-0.40479 0.71814,-0.5386 0.57651,-0.28826 1.22952,-0.4095 1.79537,-0.71815 0.11748,-0.064 0.0724,-0.27878 0.17953,-0.35908 0.15141,-0.11355 0.36467,-0.10498 0.53862,-0.17953 1.16371,-0.49874 2.51958,-1.0833 3.41119,-1.9749 0.56406,-0.56406 0.73896,-1.53308 1.25676,-2.15445 0.27091,-0.32508 0.76386,-0.49623 0.89769,-0.89768 0.0757,-0.2271 -0.0658,-0.48798 0,-0.71815 0.0592,-0.20747 0.27407,-0.34028 0.35906,-0.53861 0.0972,-0.2268 0.0824,-0.49135 0.17954,-0.71815 0.085,-0.19833 0.26258,-0.34561 0.35908,-0.5386 0.18779,-0.37559 0.37796,-2.26792 0.35907,-2.51351 -0.1245,-1.6185 -2.60794,-5.22536 -3.59073,-6.8224 -0.60574,-0.98432 -0.96068,-2.02163 -1.4363,-3.05213 -0.57049,-1.23606 -1.52014,-2.221895 -2.15444,-3.411192 -0.27736,-0.520065 -0.40171,-1.118565 -0.71815,-1.61583 -0.11584,-0.18204 -0.35907,-0.239385 -0.5386,-0.359078 -0.1197,-0.179535 -0.24471,-0.355627 -0.35908,-0.538605 -0.18494,-0.295912 -0.35907,-0.598455 -0.53861,-0.897682 -0.17954,-0.359078 -0.33206,-0.732975 -0.53861,-1.077225 -0.55121,-0.918683 -1.22711,-1.783838 -1.79536,-2.693048 -0.60919,-0.9747 -0.1644,-0.801262 -1.07723,-1.9749 -0.13247,-0.170325 -0.40914,-0.186457 -0.5386,-0.359077 -0.14364,-0.191505 0.0469,-0.483413 0,-0.718148 -0.0514,-0.256912 -0.21545,-0.658297 -0.35908,-0.897682 -0.40145,-0.66909 -0.78858,-1.350668 -1.25675,-1.9749 -0.20312,-0.270833 -0.5364,-0.43254 -0.71815,-0.718148 -0.2447,-0.384517 -0.30412,-0.865942 -0.53861,-1.25676 -0.38456,-0.640927 -1.10895,-1.108942 -1.61583,-1.61583 -0.0946,-0.09462 -0.0725,-0.278782 -0.17954,-0.35907 -0.1514,-0.11355 -0.36289,-0.109252 -0.53861,-0.179542 -1.74417,-0.697665 -2.72547,-1.062503 -4.66796,-1.256753 -0.76889,-0.07689 -1.42021,0.11415 -2.15443,-0.179535 -1.00784,-0.40314 -2.13545,-0.359077 -3.23166,-0.359077 -2.2581,0 -4.89733,-0.24051 -6.8224,1.25676 -0.33403,0.2598 -0.57921,0.61902 -0.89768,0.897682 -0.32477,0.284175 -0.77207,0.412995 -1.07722,0.718148 -0.27097,0.27096 -0.46357,0.611272 -0.71815,0.897682 -0.78139,0.879068 -0.82707,0.735563 -1.79536,1.61583 -0.85822,0.780195 -1.52432,1.703843 -2.33398,2.513513 -0.15258,0.15258 -0.38603,0.206497 -0.53861,0.359077 -0.15258,0.152573 -0.18645,0.40914 -0.35907,0.538605 -0.0575,0.04313 -1.10152,0.255578 -1.25676,0.359078 -0.35907,0.239377 0.41892,0.179535 -0.17954,0.179535"
         id="path11" />
      <path
         style="fill:#c8e6c9;fill-opacity:1;fill-rule:nonzero;stroke:#000000;stroke-width:0.75;stroke-opacity:0"
         d="m 79.714282,138.96139 29.623548,3.77027 22.08302,18.49228 -5.56564,31.59846 c 0,0 -24.59653,9.87451 -23.87838,9.87451 0.71815,0 -25.13513,-27.28957 -25.13513,-27.28957 0,0 -5.206565,-29.08494 -4.488418,-29.08494 0.718147,0 7.361,-7.36101 7.361,-7.36101 z"
         id="path12" />
      <path
         style="fill:#c8e6c9;fill-opacity:1;fill-rule:nonzero;stroke:#000000;stroke-width:0.75;stroke-opacity:0"
         d="m 168.94402,75.22587 9.87451,-14.542472 c 0,0 14.90155,-5.924711 15.6197,-4.488417 0.71814,1.436293 25.31466,45.961389 25.31466,45.961389 l -27.82818,13.64478 z"
         id="path13" />
      <path
         style="fill:#c8e6c9;fill-opacity:1;fill-rule:nonzero;stroke:#000000;stroke-width:0.75;stroke-opacity:0"
         d="m 268.04826,18.492278 -16.51737,20.646718 -2.15444,36.984557 25.13513,22.62162 27.82819,-34.111968 -7.89962,-31.598456 -15.97876,-15.081081 z"
         id="path14" />
      <path
         style="fill:#c8e6c9;fill-opacity:1;fill-rule:nonzero;stroke:#000000;stroke-width:0.75;stroke-opacity:0"
         d="m 211.75528,195.63242 9.39441,-3.17379 7.871,8.50576 -5.07806,10.66393 -13.45687,-6.22062 z"
         id="path15" />
      <path
         style="fill:#c8e6c9;fill-opacity:1;fill-rule:nonzero;stroke:#000000;stroke-width:0.75;stroke-opacity:0"
         d="m 30.214482,234.09876 12.568208,43.03659 30.341434,11.5526 22.851291,-14.59944 -12.31431,-30.59533 -36.308157,-12.18736 z"
         id="path16" />
      <path
         style="fill:#c8e6c9;fill-opacity:1;fill-rule:nonzero;stroke:#000000;stroke-width:0.75;stroke-opacity:0"
         d="m 15.107241,359.78084 4.316354,-12.82211 c 0,0 21.962628,-9.64832 23.105192,-9.90222 1.142565,-0.25391 34.403888,1.52341 34.403888,1.52341 l 12.18735,25.39032 -19.804449,19.55056 -28.944966,1.14256 z"
         id="path17" />
      <path
         style="fill:#c8e6c9;fill-opacity:1;fill-rule:nonzero;stroke:#000000;stroke-width:0.75;stroke-opacity:0"
         d="m 124.79343,425.92263 c 0.5078,1.14257 11.29869,12.94906 11.29869,12.94906 l 32.49961,1.26952 21.58177,-14.34553 7.23624,-22.85129 -22.08958,-17.51932 -27.42154,6.72843 -23.73995,25.13642 z"
         id="path18" />
      <path
         style="fill:#c8e6c9;fill-opacity:1;fill-rule:nonzero;stroke:#000000;stroke-width:0.75;stroke-opacity:0"
         d="m 354.04633,404.49614 c 0,0 8.97684,-14.72201 11.13128,-14.72201 2.15443,0 25.67374,0.35908 25.67374,0.35908 l 25.31467,17.05598 7.00193,26.21236 -31.77799,6.64285 -30.88031,-12.7471 z"
         id="path19" />
      <path
         style="fill:#c8e6c9;fill-opacity:1;fill-rule:nonzero;stroke:#000000;stroke-width:0.75;stroke-opacity:0"
         d="m 461.34213,360.28865 14.21858,-23.35909 31.484,0.5078 24.3747,12.44126 4.31636,14.47248 -34.78474,22.59739 -34.53084,-11.93345 z"
         id="path20" />
      <path
         style="fill:#c8e6c9;fill-opacity:1;fill-rule:nonzero;stroke:#000000;stroke-width:0.75;stroke-opacity:0"
         d="m 453.21722,275.23108 19.55055,16.5037 34.27694,-17.01151 11.93344,-36.81597 -6.85538,-8.88661 -26.65984,3.55465 -25.39032,14.21858 z"
         id="path21" />
      <path
         style="fill:#c8e6c9;fill-opacity:1;fill-rule:nonzero;stroke:#000000;stroke-width:0.75;stroke-opacity:0"
         d="m 412.21622,173.43243 10.7722,20.82625 20.46718,11.84943 20.1081,-12.2085 10.41313,-33.39382 1.4363,-21.90347 -17.23552,-1.4363 -27.28958,6.8224 -14.72201,17.23552 z"
         id="path22" />
      <path
         style="fill:#c8e6c9;fill-opacity:1;fill-rule:nonzero;stroke:#000000;stroke-width:0.75;stroke-opacity:0"
         d="m 314.90734,200.36293 c 3.05212,-5.3861 16.1583,-9.15636 16.1583,-9.15636 0,0 14.90154,4.30887 11.84942,10.05405 -3.05213,5.74517 -12.20849,15.26061 -15.97877,11.13127 -3.77027,-4.12934 -12.02895,-12.02896 -12.02895,-12.02896 z"
         id="path23" />
      <path
         style="fill:#c8e6c9;fill-opacity:1;fill-rule:nonzero;stroke:#000000;stroke-width:0.75;stroke-opacity:0"
         d="m 327.47491,103.7722 21.90347,-47.936292 c 0,0 25.67374,4.488417 26.57143,4.84749 0.89768,0.359073 4.30888,16.158302 4.30888,16.158302 l -22.44209,40.03668 z"
         id="path24" />
    </g>
    <path
       d="m 2695,5498 c -101,-35 -220,-180 -265,-325 -27,-88 -30,-254 -5,-328 35,-105 110,-199 195,-246 l 45,-24 3,-340 c 1,-222 -1,-342 -8,-349 -7,-7 -38,17 -98,76 -48,47 -97,91 -108,97 -12,6 -72,22 -134,37 -126,29 -276,98 -310,141 -31,39 -35,71 -16,107 26,47 58,66 141,81 95,18 127,35 155,80 l 22,36 -136,257 c -75,141 -149,268 -163,281 -25,21 -33,23 -112,19 -141,-7 -217,-52 -271,-159 l -29,-56 -74,-6 c -80,-6 -155,-36 -193,-79 -27,-29 -68,-110 -82,-162 -10,-35 -8,-45 30,-120 91,-183 192,-358 214,-372 31,-21 48,-14 176,63 138,84 153,83 227,-17 84,-113 238,-190 471,-237 14,-2 82,-62 162,-141 l 138,-137 v -332 c 0,-232 -3,-334 -11,-339 -14,-8 -289,264 -329,327 -36,54 -37,79 -9,105 31,28 49,76 49,134 0,104 -70,173 -176,173 -133,0 -220,-128 -169,-250 22,-53 43,-73 102,-99 33,-15 54,-31 58,-46 20,-65 94,-158 282,-352 l 203,-210 v -193 c 0,-124 -4,-194 -11,-198 -11,-7 -562,548 -612,617 -25,33 -30,52 -37,134 -15,172 -70,232 -223,241 -97,6 -127,-6 -127,-51 0,-44 28,-60 120,-70 88,-8 100,-22 111,-127 5,-46 7,-90 4,-97 -4,-12 -22,-14 -97,-8 -101,8 -145,25 -194,78 -39,41 -54,70 -89,178 -38,115 -64,164 -133,251 -79,101 -77,93 -43,142 41,60 65,147 58,215 -16,154 -145,278 -357,343 -101,31 -306,35 -338,6 -39,-35 -57,-150 -41,-261 21,-155 110,-337 214,-442 87,-88 137,-93 283,-28 30,13 58,24 63,24 12,0 107,-120 126,-160 9,-19 36,-87 60,-150 52,-138 98,-208 164,-250 82,-53 133,-67 272,-75 l 127,-7 350,-357 350,-356 1,-295 c 1,-162 1,-302 0,-310 -1,-8 -4,-40 -5,-70 -4,-69 -17,-102 -52,-129 -59,-46 -100,-34 -156,47 -58,85 -149,182 -188,202 -46,23 -153,27 -225,8 l -45,-12 -52,56 c -64,69 -127,99 -219,106 -116,8 -239,-35 -351,-122 -136,-107 -240,-355 -185,-439 9,-14 49,-42 89,-61 189,-94 413,-85 574,21 63,41 94,84 139,194 44,105 76,139 139,146 82,10 131,-28 191,-146 15,-30 48,-77 75,-105 26,-28 52,-61 59,-73 7,-14 11,-99 11,-251 V 723 l -29,-40 c -56,-78 -23,-73 -531,-73 l -455,-1 65,-60 c 97,-88 226,-177 352,-241 121,-62 138,-67 158,-43 10,12 29,15 74,13 l 61,-3 1,-38 c 1,-22 7,-43 15,-48 21,-13 172,-46 288,-64 215,-32 547,-13 741,43 l 65,19 5,44 5,44 64,3 c 53,3 67,0 85,-18 l 22,-20 90,44 c 168,82 356,208 438,295 l 30,31 h -457 -456 l -37,32 c -60,53 -64,72 -64,312 0,118 4,225 9,239 5,13 31,48 58,78 27,30 66,83 85,119 53,94 95,132 156,138 87,8 131,-30 177,-153 44,-115 86,-165 184,-214 153,-78 359,-79 518,-1 34,17 74,45 89,63 25,29 26,36 20,96 -13,148 -141,329 -284,404 -194,101 -351,89 -476,-36 l -60,-59 -57,12 c -31,7 -88,11 -127,8 -88,-5 -130,-31 -210,-130 -135,-169 -158,-185 -217,-148 -60,37 -62,55 -64,455 l -2,360 351,358 352,357 h 51 c 171,0 301,39 385,114 45,41 97,135 142,256 17,47 41,100 52,120 40,65 109,150 122,150 8,0 44,-14 80,-31 129,-60 185,-51 273,45 66,72 129,184 169,301 24,70 28,96 28,200 1,97 -2,126 -17,152 -32,59 -54,67 -175,60 -125,-7 -197,-25 -297,-74 -156,-76 -240,-191 -240,-328 0,-62 5,-81 38,-147 20,-42 37,-80 37,-85 0,-6 -30,-49 -66,-97 -70,-93 -95,-142 -138,-271 -53,-160 -130,-223 -283,-233 -100,-6 -102,-4 -85,112 15,104 28,117 122,125 59,6 76,11 91,30 23,28 24,41 5,67 -12,16 -27,19 -103,19 -164,-1 -220,-62 -238,-260 -4,-43 -14,-82 -27,-105 -27,-44 -598,-620 -615,-620 -10,0 -13,43 -13,197 v 197 l 208,210 c 184,187 213,221 252,296 40,74 49,85 80,93 44,11 96,60 111,105 27,83 -16,193 -89,228 -47,22 -118,22 -166,-1 -98,-46 -124,-196 -51,-283 33,-39 31,-60 -6,-113 -41,-57 -310,-329 -326,-329 -10,0 -13,72 -13,336 v 336 l 128,130 c 135,138 162,158 213,158 49,0 204,56 279,101 66,39 103,74 178,168 29,36 38,41 74,41 33,0 59,-11 134,-60 104,-68 139,-83 165,-75 22,7 63,76 180,301 l 83,161 -28,71 c -56,145 -127,201 -264,210 l -73,5 -26,54 c -48,98 -132,151 -257,160 -124,10 -131,4 -219,-155 -151,-276 -197,-369 -197,-398 0,-21 10,-40 33,-61 38,-37 63,-48 137,-58 66,-9 101,-25 129,-61 79,-100 -76,-220 -357,-279 -40,-8 -83,-20 -95,-26 -12,-6 -61,-50 -109,-97 -50,-49 -92,-83 -100,-80 -11,4 -12,69 -10,347 l 3,341 52,33 c 74,48 151,136 178,205 20,48 23,76 23,177 0,106 -3,130 -27,200 -70,201 -227,349 -332,313 z m 83,-142 c 34,-18 72,-66 106,-134 14,-28 26,-54 27,-57 0,-2 7,-22 16,-42 10,-26 15,-66 14,-126 -1,-74 -6,-99 -30,-151 -16,-35 -48,-84 -73,-109 -42,-45 -47,-47 -99,-47 -48,0 -58,4 -91,36 -59,55 -85,94 -107,161 -38,113 -22,217 57,366 53,102 115,137 180,103 z m -725,-570 c 59,-113 107,-209 107,-215 0,-6 -10,-11 -23,-11 -48,0 -124,-31 -171,-70 -27,-22 -50,-39 -51,-38 -1,2 -48,86 -105,187 l -103,183 16,33 c 22,47 77,106 112,121 16,7 48,13 71,14 h 41 z m 1584,193 c 57,-21 113,-93 113,-144 0,-24 -173,-360 -191,-371 -5,-3 -24,6 -42,20 -45,34 -112,62 -169,71 -27,3 -48,8 -48,11 0,7 35,75 132,257 l 90,167 h 43 c 24,0 56,-5 72,-11 z M 1611,4744 c 14,-13 127,-205 179,-303 14,-28 2,-40 -40,-41 -39,-1 -101,-33 -155,-83 l -51,-45 -18,31 c -10,18 -51,95 -92,173 l -74,141 39,60 c 36,56 59,73 116,87 31,7 77,-2 96,-20 z m 2431,-35 c 27,-28 51,-63 55,-77 4,-19 -13,-63 -73,-184 -43,-88 -82,-162 -87,-165 -4,-2 -33,18 -64,46 -55,49 -110,71 -178,71 -14,0 -25,4 -25,8 0,11 164,318 180,337 9,10 33,15 78,15 h 66 z M 978,4138 c 119,-22 231,-95 277,-179 23,-44 27,-59 22,-104 -7,-69 -26,-105 -90,-167 -54,-52 -125,-88 -176,-88 -62,0 -189,188 -226,335 -30,115 -16,206 33,218 21,5 89,-1 160,-15 z m 3708,-14 c 15,-23 16,-36 6,-107 -22,-168 -108,-344 -197,-406 -27,-18 -36,-19 -70,-10 -49,14 -90,34 -113,57 -10,9 -32,29 -49,43 -47,40 -67,85 -67,154 0,74 24,124 87,182 84,78 174,111 304,112 78,1 83,0 99,-25 z M 2232,3613 c 22,-20 24,-66 2,-87 -35,-36 -104,-7 -104,42 0,54 62,81 102,45 z m 1104,-9 c 22,-33 9,-74 -30,-93 -25,-12 -31,-11 -55,6 -53,40 -31,113 35,113 25,0 38,-7 50,-26 z M 1811,1642 c 102,-53 125,-132 70,-240 -57,-112 -153,-171 -294,-179 -105,-7 -236,25 -267,64 -23,30 -26,80 -6,127 33,79 187,202 296,237 82,27 138,24 201,-9 z m 2124,-9 c 33,-17 69,-40 79,-52 11,-12 23,-21 28,-21 35,0 127,-159 136,-235 4,-37 1,-45 -20,-59 -32,-21 -167,-46 -249,-46 -143,0 -265,75 -321,198 -34,75 -31,122 13,175 48,59 101,79 194,74 65,-3 92,-10 140,-34 z"
       id="path1"
       style="display:inline;fill:url(#linearGradient3);fill-opacity:1;fill-rule:nonzero" />
    <path
       d="m 320,3332 c -56,-9 -66,-16 -86,-54 -13,-25 -15,-47 -10,-107 24,-270 165,-471 370,-526 60,-16 164,-17 260,-3 14,2 42,-32 116,-142 120,-179 189,-251 278,-293 64,-31 73,-32 215,-35 176,-4 181,-9 85,-97 -99,-92 -109,-95 -348,-95 -143,0 -212,4 -229,13 -18,8 -30,29 -42,69 -32,108 -77,159 -184,210 -67,31 -75,33 -185,32 -63,0 -135,-6 -160,-13 -85,-24 -173,-75 -238,-135 -144,-135 -146,-190 -13,-329 114,-121 275,-185 438,-174 107,6 169,36 268,128 l 75,69 h 214 c 334,0 370,13 553,197 l 122,123 h 127 128 l 150,-148 c 83,-81 189,-185 236,-230 51.7629,-46.8346 144.8134,-85.1839 219.5687,-112.1032 l 20.7732,119.0855 C 2663.1713,1813.9904 2608.8353,1831.2188 2551,1874 l -291,291 c -180,180 -312,304 -346,325 -72,43 -167,77 -284,100 -100,21 -132,37 -167,89 -16,23 -20,41 -16,66 9,53 -4,84 -41,102 -42,19 -80,11 -101,-21 -15,-22 -14,-31 15,-121 49,-150 105,-197 278,-235 119,-26 189,-48 244,-76 48,-24 92,-70 82,-85 -3,-5 -141,-9 -308,-9 h -303 l -47,31 c -50,34 -96,90 -196,239 -106,158 -111,169 -94,202 25,49 34,123 23,185 -31,165 -140,281 -324,345 -65,22 -105,29 -196,32 -63,3 -134,2 -159,-2 z m 255,-123 c 121,-21 236,-103 284,-201 42,-87 21,-188 -49,-235 -26,-18 -47,-23 -96,-23 -185,0 -332,150 -365,372 -16,111 -16,112 84,104 45,-4 109,-12 142,-17 z M 700,2162 c 81,-36 140,-122 140,-204 0,-53 -2,-56 -94,-123 -76,-56 -126,-69 -225,-62 -125,8 -257,83 -317,179 -30,47 -30,50 4,85 71,75 150,124 227,143 59,15 217,4 265,-18 z"
       id="path2"
       sodipodi:nodetypes="cccccccccsccccccccccscccccccccsccccccccccscccccccccccsccccscccccc"
       style="display:inline;fill:url(#linearGradient4);fill-opacity:1;fill-rule:nonzero" />
    <path
       d="m 4858,3324 c -232,-51 -376,-200 -386,-399 -4,-67 -1,-89 18,-132 25,-60 32,-43 -84,-221 -99,-152 -162,-223 -219,-251 -41,-20 -60,-21 -340,-21 -163,0 -298,4 -301,8 -3,5 9,23 27,39 57,54 144,89 309,123 118,24 184,55 232,111 35,41 96,179 96,217 0,35 -26,57 -69,57 -59,0 -85,-29 -86,-97 -1,-97 -62,-148 -200,-168 -44,-7 -109,-21 -145,-32 -143,-44 -163,-60 -489,-381 -141.1988,-124.1219 -265.2872,-270.4776 -423.5965,-366.082 l -0.7558,-61.9441 c -2,-66 -8.528,-74.1331 3.472,-71.1331 C 2783.6128,1659.3352 2954.1226,1753.5495 3169,1948 l 229,222 h 127 127 l 121,-124 c 183,-185 214,-196 558,-196 h 219 l 75,-69 c 99,-92 161,-122 268,-128 163,-11 324,53 438,174 133,139 131,194 -13,329 -65,60 -153,111 -238,135 -25,7 -97,13 -160,13 -110,1 -118,-1 -185,-32 -107,-51 -152,-102 -184,-210 -12,-40 -24,-61 -42,-69 -17,-9 -89,-13 -242,-13 -196,0 -222,2 -256,19 -47,24 -164,138 -158,154 2,8 50,14 153,17 141,5 153,7 216,37 99,46 158,108 276,286 91,138 107,158 126,152 49,-14 175,-17 227,-5 223,53 374,255 396,530 6,84 -8,129 -50,152 -34,19 -258,21 -339,2 z m 252,-105 c 58,-17 -12,-251 -109,-360 -72,-83 -218,-129 -321,-102 -54,14 -92,75 -91,144 1,103 36,171 122,239 54,42 118,66 221,80 62,8 149,8 178,-1 z M 5009,2180 c 93,-12 149,-40 223,-110 79,-76 78,-95 -4,-174 -82,-78 -165,-116 -270,-123 -94,-7 -147,6 -210,52 -102,74 -130,149 -84,227 37,63 77,98 138,119 60,21 101,23 207,9 z"
       id="path3"
       sodipodi:nodetypes="cccccsccccssccccccccccccsccccccccccsccccccccccccccccccccccccc"
       style="display:inline;fill:url(#linearGradient5);fill-opacity:1;fill-rule:nonzero"
       inkscape:highlight-color="#aaaaaa" />
  </g>
</svg>
